<svg width="251" height="251" viewBox="0 0 251 251" fill="none" xmlns="http://www.w3.org/2000/svg">
<rect x="33" y="33" width="185" height="185" rx="47.1338" fill="white"/>
<path fill-rule="evenodd" clip-rule="evenodd" d="M146.177 144.999H179.135C187.456 144.999 194.201 138.254 194.201 129.933V119.889C194.201 111.568 187.456 104.822 179.135 104.822H146.177V71.8648C146.177 63.5439 139.432 56.7984 131.111 56.7984H121.067C112.746 56.7984 106 63.5439 106 71.8648V104.822H73.0429C64.722 104.822 57.9765 111.568 57.9765 119.889V129.933C57.9765 138.254 64.722 144.999 73.0429 144.999H106V177.957C106 186.278 112.746 193.023 121.067 193.023H131.111C139.432 193.023 146.177 186.278 146.177 177.957V144.999ZM149.944 177.957C149.944 188.358 141.512 196.79 131.111 196.79H121.067C110.666 196.79 102.234 188.358 102.234 177.957V148.766H73.0429C62.6418 148.766 54.21 140.334 54.21 129.933V119.889C54.21 109.488 62.6417 101.056 73.0429 101.056H102.234V71.8648C102.234 61.4636 110.666 53.0318 121.067 53.0318H131.111C141.512 53.0318 149.944 61.4636 149.944 71.8648V101.056H179.135C189.536 101.056 197.968 109.488 197.968 119.889V129.933C197.968 140.334 189.536 148.766 179.135 148.766H149.944V177.957Z" fill="#436DBE" stroke="#436DBE" stroke-width="3.76658"/>
<path d="M126.718 130.56C129.737 131.223 135.82 132.444 138.331 133.699C143.981 136.21 144.295 139.977 144.295 146.882H151.828C151.828 140.291 152.855 136.241 145.55 130.56C142.725 128.364 137.102 126.261 132.315 125.229L122.26 123.13C119.461 122.541 117.399 121.583 116.073 120.258C113.69 118.633 113.027 116.939 113.027 114.877C113.027 112.225 114.095 110.089 116.231 108.468C118.367 106.848 121.498 106.038 125.623 106.038C127.832 106.038 130.079 106.406 132.362 107.143C134.646 107.806 136.892 108.874 139.102 110.347C139.912 110.862 140.686 111.083 141.422 111.01C142.159 110.936 142.785 110.678 143.3 110.236C143.816 109.721 144.147 109.131 144.295 108.468C144.516 107.732 144.479 107.032 144.184 106.369C143.963 105.633 143.485 105.007 142.748 104.491C140.391 102.649 137.739 101.324 134.793 100.513C131.92 99.6295 128.863 99.1876 125.623 99.1876C121.424 99.1876 117.741 99.8505 114.574 101.176C111.407 102.502 108.939 104.38 107.171 106.811C106.324 107.976 105.258 110.472 105.258 112.998C105.258 116.755 106.303 120.773 108.512 123.13C110.796 125.487 114.476 127.422 117.615 128.364C120.754 129.305 126.718 130.56 126.718 130.56Z" fill="#67A1E2"/>
<path d="M106 177.957C106 186.278 112.746 193.023 121.067 193.023H131.111C139.432 193.023 146.177 186.278 146.177 177.957V144.999H149.944V177.957C149.944 188.358 141.512 196.79 131.111 196.79H121.067C110.666 196.79 102.234 188.358 102.234 177.957C102.339 177.538 102.862 176.701 104.117 176.701C105.373 176.701 105.896 177.538 106 177.957Z" fill="#67A1E2" stroke="#67A1E2" stroke-width="3.76658"/>
<circle cx="172.229" cy="80.0257" r="10.672" stroke="#436DBE" stroke-width="5.02211"/>
</svg>
