<svg width="1002" height="251" viewBox="0 0 1002 251" fill="none" xmlns="http://www.w3.org/2000/svg">
<path fill-rule="evenodd" clip-rule="evenodd" d="M163.5 157.5H216C229.255 157.5 240 146.755 240 133.5V117.5C240 104.245 229.255 93.5 216 93.5H163.5V41C163.5 27.7452 152.755 17 139.5 17H123.5C110.245 17 99.5 27.7452 99.5 41V93.5H47C33.7452 93.5 23 104.245 23 117.5V133.5C23 146.755 33.7452 157.5 47 157.5H99.5V210C99.5 223.255 110.245 234 123.5 234H139.5C152.755 234 163.5 223.255 163.5 210V157.5ZM169.5 210C169.5 226.569 156.069 240 139.5 240H123.5C106.931 240 93.5 226.569 93.5 210V163.5H47C30.4315 163.5 17 150.069 17 133.5V117.5C17 100.931 30.4315 87.5 47 87.5H93.5V41C93.5 24.4315 106.931 11 123.5 11H139.5C156.069 11 169.5 24.4315 169.5 41V87.5H216C232.569 87.5 246 100.931 246 117.5V133.5C246 150.069 232.569 163.5 216 163.5H169.5V210Z" fill="#436DBE" stroke="#436DBE" stroke-width="6"/>
<path d="M132.5 134.5C137.311 135.556 147 137.5 151 139.5C160 143.5 160.5 149.5 160.5 160.5H172.5C172.5 150 174.136 143.548 162.5 134.5C158 131 149.043 127.65 141.416 126.008L125.4 122.664C120.942 121.725 117.656 120.2 115.544 118.088C111.748 115.5 110.692 112.801 110.692 109.516C110.692 105.292 112.393 101.889 115.796 99.308C119.199 96.7267 124.185 95.436 130.756 95.436C134.276 95.436 137.855 96.0227 141.492 97.196C145.129 98.252 148.708 99.9533 152.228 102.3C153.519 103.121 154.751 103.473 155.924 103.356C157.097 103.239 158.095 102.828 158.916 102.124C159.737 101.303 160.265 100.364 160.5 99.308C160.852 98.1347 160.793 97.02 160.324 95.964C159.972 94.7907 159.209 93.7933 158.036 92.972C154.281 90.0387 150.057 87.9267 145.364 86.636C140.788 85.228 135.919 84.524 130.756 84.524C124.068 84.524 118.201 85.58 113.156 87.692C108.111 89.804 104.18 92.796 101.364 96.668C100.014 98.524 98.3159 102.5 98.3159 106.524C98.3159 112.508 99.9803 118.909 103.5 122.664C107.138 126.418 113 129.5 118 131C123 132.5 132.5 134.5 132.5 134.5Z" fill="#67A1E2"/>
<path d="M99.5 210C99.5 223.255 110.245 234 123.5 234H139.5C152.755 234 163.5 223.255 163.5 210V157.5H169.5V210C169.5 226.569 156.069 240 139.5 240H123.5C106.931 240 93.5 226.569 93.5 210C93.6667 209.333 94.5 208 96.5 208C98.5 208 99.3333 209.333 99.5 210Z" fill="#67A1E2" stroke="#67A1E2" stroke-width="6"/>
<circle cx="205" cy="54" r="17" stroke="#436DBE" stroke-width="8"/>
<path d="M309.54 191.44C301.26 191.44 293.28 190.48 285.6 188.56C278.04 186.52 272.04 184 267.6 181L276.96 160.84C281.4 163.6 286.62 165.88 292.62 167.68C298.74 169.36 304.74 170.2 310.62 170.2C317.1 170.2 321.66 169.42 324.3 167.86C327.06 166.3 328.44 164.14 328.44 161.38C328.44 159.1 327.36 157.42 325.2 156.34C323.16 155.14 320.4 154.24 316.92 153.64C313.44 153.04 309.6 152.44 305.4 151.84C301.32 151.24 297.18 150.46 292.98 149.5C288.78 148.42 284.94 146.86 281.46 144.82C277.98 142.78 275.16 140.02 273 136.54C270.96 133.06 269.94 128.56 269.94 123.04C269.94 116.92 271.68 111.52 275.16 106.84C278.76 102.16 283.92 98.5 290.64 95.86C297.36 93.1 305.4 91.72 314.76 91.72C321.36 91.72 328.08 92.44 334.92 93.88C341.76 95.32 347.46 97.42 352.02 100.18L342.66 120.16C337.98 117.4 333.24 115.54 328.44 114.58C323.76 113.5 319.2 112.96 314.76 112.96C308.52 112.96 303.96 113.8 301.08 115.48C298.2 117.16 296.76 119.32 296.76 121.96C296.76 124.36 297.78 126.16 299.82 127.36C301.98 128.56 304.8 129.52 308.28 130.24C311.76 130.96 315.54 131.62 319.62 132.22C323.82 132.7 328.02 133.48 332.22 134.56C336.42 135.64 340.2 137.2 343.56 139.24C347.04 141.16 349.86 143.86 352.02 147.34C354.18 150.7 355.26 155.14 355.26 160.66C355.26 166.66 353.46 172 349.86 176.68C346.26 181.24 341.04 184.84 334.2 187.48C327.48 190.12 319.26 191.44 309.54 191.44ZM420.645 191.44C409.605 191.44 399.885 189.28 391.485 184.96C383.205 180.64 376.785 174.76 372.225 167.32C367.665 159.76 365.385 151.18 365.385 141.58C365.385 131.86 367.605 123.28 372.045 115.84C376.605 108.28 382.785 102.4 390.585 98.2C398.385 93.88 407.205 91.72 417.045 91.72C426.525 91.72 435.045 93.76 442.605 97.84C450.285 101.8 456.345 107.56 460.785 115.12C465.225 122.56 467.445 131.5 467.445 141.94C467.445 143.02 467.385 144.28 467.265 145.72C467.145 147.04 467.025 148.3 466.905 149.5H388.245V133.12H452.145L441.345 137.98C441.345 132.94 440.325 128.56 438.285 124.84C436.245 121.12 433.425 118.24 429.825 116.2C426.225 114.04 422.025 112.96 417.225 112.96C412.425 112.96 408.165 114.04 404.445 116.2C400.845 118.24 398.025 121.18 395.985 125.02C393.945 128.74 392.925 133.18 392.925 138.34V142.66C392.925 147.94 394.065 152.62 396.345 156.7C398.745 160.66 402.045 163.72 406.245 165.88C410.565 167.92 415.605 168.94 421.365 168.94C426.525 168.94 431.025 168.16 434.865 166.6C438.825 165.04 442.425 162.7 445.665 159.58L460.605 175.78C456.165 180.82 450.585 184.72 443.865 187.48C437.145 190.12 429.405 191.44 420.645 191.44ZM486.14 190V56.44H514.22V190H486.14ZM543.7 190V91C543.7 80.08 546.94 71.38 553.42 64.9C559.9 58.3 569.14 55 581.14 55C585.22 55 589.12 55.42 592.84 56.26C596.68 57.1 599.92 58.42 602.56 60.22L595.18 80.56C593.62 79.48 591.88 78.64 589.96 78.04C588.04 77.44 586 77.14 583.84 77.14C579.76 77.14 576.58 78.34 574.3 80.74C572.14 83.02 571.06 86.5 571.06 91.18V100.18L571.78 112.24V190H543.7ZM528.76 116.92V95.32H595.9V116.92H528.76ZM664.25 93.7C672.05 93.7 678.89 95.2 684.77 98.2C690.77 101.2 695.45 105.76 698.81 111.88C702.17 118 703.85 125.74 703.85 135.1V190H686.57V137.08C686.57 127.84 684.29 120.88 679.73 116.2C675.29 111.52 668.99 109.18 660.83 109.18C654.71 109.18 649.37 110.38 644.81 112.78C640.25 115.18 636.71 118.72 634.19 123.4C631.79 128.08 630.59 133.9 630.59 140.86V190H613.31V56.44H630.59V120.34L627.17 113.5C630.29 107.26 635.09 102.4 641.57 98.92C648.05 95.44 655.61 93.7 664.25 93.7ZM778.309 191.08C768.109 191.08 759.109 188.98 751.309 184.78C743.629 180.58 737.629 174.82 733.309 167.5C729.109 160.18 727.009 151.78 727.009 142.3C727.009 132.82 729.049 124.42 733.129 117.1C737.329 109.78 743.029 104.08 750.229 100C757.549 95.8 765.769 93.7 774.889 93.7C784.129 93.7 792.289 95.74 799.369 99.82C806.449 103.9 811.969 109.66 815.929 117.1C820.009 124.42 822.049 133 822.049 142.84C822.049 143.56 821.989 144.4 821.869 145.36C821.869 146.32 821.809 147.22 821.689 148.06H740.509V135.64H812.689L805.669 139.96C805.789 133.84 804.529 128.38 801.889 123.58C799.249 118.78 795.589 115.06 790.909 112.42C786.349 109.66 781.009 108.28 774.889 108.28C768.889 108.28 763.549 109.66 758.869 112.42C754.189 115.06 750.529 118.84 747.889 123.76C745.249 128.56 743.929 134.08 743.929 140.32V143.2C743.929 149.56 745.369 155.26 748.249 160.3C751.249 165.22 755.389 169.06 760.669 171.82C765.949 174.58 772.009 175.96 778.849 175.96C784.489 175.96 789.589 175 794.149 173.08C798.829 171.16 802.909 168.28 806.389 164.44L815.929 175.6C811.609 180.64 806.209 184.48 799.729 187.12C793.369 189.76 786.229 191.08 778.309 191.08ZM902.627 190V169.84L901.727 166.06V131.68C901.727 124.36 899.567 118.72 895.247 114.76C891.047 110.68 884.687 108.64 876.167 108.64C870.527 108.64 865.007 109.6 859.607 111.52C854.207 113.32 849.647 115.78 845.927 118.9L838.727 105.94C843.647 101.98 849.527 98.98 856.367 96.94C863.327 94.78 870.587 93.7 878.147 93.7C891.227 93.7 901.307 96.88 908.387 103.24C915.467 109.6 919.007 119.32 919.007 132.4V190H902.627ZM871.307 191.08C864.227 191.08 857.987 189.88 852.587 187.48C847.307 185.08 843.227 181.78 840.347 177.58C837.467 173.26 836.027 168.4 836.027 163C836.027 157.84 837.227 153.16 839.627 148.96C842.147 144.76 846.167 141.4 851.687 138.88C857.327 136.36 864.887 135.1 874.367 135.1H904.607V147.52H875.087C866.447 147.52 860.627 148.96 857.627 151.84C854.627 154.72 853.127 158.2 853.127 162.28C853.127 166.96 854.987 170.74 858.707 173.62C862.427 176.38 867.587 177.76 874.187 177.76C880.667 177.76 886.307 176.32 891.107 173.44C896.027 170.56 899.567 166.36 901.727 160.84L905.147 172.72C902.867 178.36 898.847 182.86 893.087 186.22C887.327 189.46 880.067 191.08 871.307 191.08ZM950.985 190V56.44H968.265V190H950.985Z" fill="#436DBE"/>
</svg>
