<svg width="386" height="386" viewBox="0 0 386 386" fill="none" xmlns="http://www.w3.org/2000/svg">
<path fill-rule="evenodd" clip-rule="evenodd" d="M242.211 242.211H322.948C343.332 242.211 359.857 225.687 359.857 205.303V180.697C359.857 160.313 343.332 143.789 322.948 143.789H242.211V63.0518C242.211 42.6679 225.687 26.1434 205.303 26.1434H180.697C160.313 26.1434 143.789 42.6679 143.789 63.0518V143.789H63.052C42.668 143.789 26.1436 160.313 26.1436 180.697V205.303C26.1436 225.687 42.668 242.211 63.052 242.211H143.789V322.948C143.789 343.332 160.313 359.857 180.697 359.857H205.303C225.687 359.857 242.211 343.332 242.211 322.948V242.211ZM251.438 322.948C251.438 348.428 230.783 369.084 205.303 369.084H180.697C155.217 369.084 134.562 348.428 134.562 322.948V251.438H63.052C37.5721 251.438 16.9165 230.783 16.9165 205.303V180.697C16.9165 155.217 37.5721 134.562 63.052 134.562H134.562V63.0518C134.562 37.5719 155.217 16.9163 180.697 16.9163H205.303C230.783 16.9163 251.438 37.5719 251.438 63.0518V134.562H322.948C348.428 134.562 369.084 155.217 369.084 180.697V205.303C369.084 230.783 348.428 251.438 322.948 251.438H251.438V322.948Z" fill="#436DBE" stroke="#436DBE" stroke-width="9.22709"/>
<path d="M194.538 206.84C201.936 208.464 216.837 211.454 222.988 214.529C236.829 220.681 237.597 229.908 237.597 246.824H256.052C256.052 230.677 258.567 220.756 240.673 206.84C233.753 201.458 219.978 196.307 208.25 193.781L183.619 188.638C176.763 187.195 171.71 184.849 168.462 181.601C162.624 177.621 161 173.471 161 168.419C161 161.923 163.617 156.69 168.85 152.721C174.082 148.751 181.751 146.766 191.856 146.766C197.269 146.766 202.772 147.668 208.366 149.473C213.96 151.097 219.463 153.713 224.876 157.322C226.861 158.585 228.756 159.126 230.56 158.946C232.365 158.765 233.898 158.134 235.162 157.051C236.425 155.788 237.237 154.345 237.597 152.721C238.139 150.916 238.049 149.202 237.327 147.578C236.786 145.774 235.613 144.24 233.808 142.977C228.034 138.466 221.538 135.218 214.321 133.233C207.283 131.068 199.795 129.985 191.856 129.985C181.571 129.985 172.549 131.609 164.79 134.857C157.031 138.105 150.986 142.706 146.655 148.661C144.579 151.515 141.968 157.629 141.968 163.818C141.968 173.02 144.527 182.864 149.941 188.638C155.534 194.412 164.55 199.151 172.239 201.458C179.928 203.765 194.538 206.84 194.538 206.84Z" fill="#67A1E2"/>
<path d="M143.789 322.948C143.789 343.332 160.313 359.857 180.697 359.857H205.303C225.686 359.857 242.211 343.332 242.211 322.948V242.211H251.438V322.948C251.438 348.428 230.782 369.084 205.303 369.084H180.697C155.217 369.084 134.562 348.428 134.562 322.948C134.818 321.923 136.099 319.873 139.175 319.873C142.251 319.873 143.532 321.923 143.789 322.948Z" fill="#67A1E2" stroke="#67A1E2" stroke-width="9.22709"/>
<circle cx="306.032" cy="83.0438" r="26.1434" stroke="#436DBE" stroke-width="12.3028"/>
</svg>
