<svg width="251" height="251" viewBox="0 0 251 251" fill="none" xmlns="http://www.w3.org/2000/svg">
<path fill-rule="evenodd" clip-rule="evenodd" d="M157.5 157.5H210C223.255 157.5 234 146.755 234 133.5V117.5C234 104.245 223.255 93.5 210 93.5H157.5V41C157.5 27.7452 146.755 17 133.5 17H117.5C104.245 17 93.5 27.7452 93.5 41V93.5H41C27.7452 93.5 17 104.245 17 117.5V133.5C17 146.755 27.7452 157.5 41 157.5H93.5V210C93.5 223.255 104.245 234 117.5 234H133.5C146.755 234 157.5 223.255 157.5 210V157.5ZM163.5 210C163.5 226.569 150.069 240 133.5 240H117.5C100.931 240 87.5 226.569 87.5 210V163.5H41C24.4315 163.5 11 150.069 11 133.5V117.5C11 100.931 24.4315 87.5 41 87.5H87.5V41C87.5 24.4315 100.931 11 117.5 11H133.5C150.069 11 163.5 24.4315 163.5 41V87.5H210C226.569 87.5 240 100.931 240 117.5V133.5C240 150.069 226.569 163.5 210 163.5H163.5V210Z" fill="#436DBE" stroke="#436DBE" stroke-width="6"/>
<path d="M126.5 134.5C131.311 135.556 141 137.5 145 139.5C154 143.5 154.5 149.5 154.5 160.5H166.5C166.5 150 168.136 143.548 156.5 134.5C152 131 143.043 127.65 135.416 126.008L119.4 122.664C114.942 121.725 111.656 120.2 109.544 118.088C105.748 115.5 104.692 112.801 104.692 109.516C104.692 105.292 106.393 101.889 109.796 99.308C113.199 96.7267 118.185 95.436 124.756 95.436C128.276 95.436 131.855 96.0227 135.492 97.196C139.129 98.252 142.708 99.9533 146.228 102.3C147.519 103.121 148.751 103.473 149.924 103.356C151.097 103.239 152.095 102.828 152.916 102.124C153.737 101.303 154.265 100.364 154.5 99.308C154.852 98.1347 154.793 97.02 154.324 95.964C153.972 94.7907 153.209 93.7933 152.036 92.972C148.281 90.0387 144.057 87.9267 139.364 86.636C134.788 85.228 129.919 84.524 124.756 84.524C118.068 84.524 112.201 85.58 107.156 87.692C102.111 89.804 98.18 92.796 95.364 96.668C94.0142 98.524 92.3159 102.5 92.3159 106.524C92.3159 112.508 93.9803 118.909 97.5003 122.664C101.138 126.418 107 129.5 112 131C117 132.5 126.5 134.5 126.5 134.5Z" fill="#67A1E2"/>
<path d="M93.5 210C93.5 223.255 104.245 234 117.5 234H133.5C146.755 234 157.5 223.255 157.5 210V157.5H163.5V210C163.5 226.569 150.069 240 133.5 240H117.5C100.931 240 87.5 226.569 87.5 210C87.6667 209.333 88.5 208 90.5 208C92.5 208 93.3333 209.333 93.5 210Z" fill="#67A1E2" stroke="#67A1E2" stroke-width="6"/>
<circle cx="199" cy="54" r="17" stroke="#436DBE" stroke-width="8"/>
</svg>
